<?xml version="1.0" standalone="no"?>
<!DOCTYPE svg PUBLIC "-//W3C//DTD SVG 20010904//EN"
 "http://www.w3.org/TR/2001/REC-SVG-20010904/DTD/svg10.dtd">
<svg version="1.0" xmlns="http://www.w3.org/2000/svg"
 width="100.000000pt" height="100.000000pt" viewBox="0 0 100.000000 100.000000"
 preserveAspectRatio="xMidYMid meet">
<metadata>
Created by potrace 1.14, written by Peter Selinger 2001-2017
</metadata>
<g transform="translate(0.000000,100.000000) scale(0.100000,-0.100000)"
fill="#000000" stroke="none">
<path d="M0 910 c0 -88 1 -91 22 -89 13 1 54 1 91 1 62 -2 71 -5 102 -35 24
-23 32 -39 29 -57 -2 -14 -6 -46 -9 -73 -6 -46 -7 -47 -28 -32 -25 18 -80 20
-109 4 -22 -12 -48 -66 -48 -102 0 -14 9 -36 21 -51 17 -22 28 -26 73 -26 32
0 61 -6 75 -17 14 -9 45 -20 70 -24 25 -4 60 -11 77 -14 31 -7 32 -6 36 34 3
39 2 41 -23 41 -37 0 -41 9 -13 34 27 24 59 134 49 166 -7 21 -30 27 -40 10
-3 -5 -11 -10 -17 -10 -7 0 -6 6 2 15 7 8 23 15 37 15 29 0 65 -18 59 -29 -3
-4 6 -13 19 -19 24 -11 24 -12 9 -47 -8 -20 -28 -55 -44 -77 -17 -23 -28 -44
-24 -47 3 -3 9 1 14 9 5 8 16 24 24 35 13 17 17 18 25 6 6 -10 6 -22 0 -33
-14 -25 29 -64 46 -42 8 10 20 4 60 -31 l50 -45 -45 6 c-39 5 -48 3 -69 -19
l-23 -25 80 -7 81 -7 5 -77 c11 -132 11 -165 4 -211 -6 -35 -6 -41 3 -26 6 10
13 55 15 99 2 44 7 84 11 87 4 4 21 10 37 14 25 6 28 5 21 -11 -7 -19 -7 -154
1 -162 2 -2 -3 -13 -13 -23 -16 -17 -11 -18 120 -18 l137 0 0 500 0 500 -500
0 -500 0 0 -90z m290 -160 c0 -5 -7 -7 -15 -4 -8 4 -15 8 -15 10 0 2 7 4 15 4
8 0 15 -4 15 -10z m60 -156 c-9 -33 -21 -49 -42 -60 -17 -9 -32 -14 -34 -11
-2 2 -1 25 2 50 6 41 11 49 43 64 20 10 38 14 40 10 2 -5 -2 -29 -9 -53z m228
9 c54 -34 37 -66 -37 -68 -57 -2 -67 12 -45 64 15 35 32 36 82 4z m13 -123
c10 -6 19 -20 19 -31 0 -11 5 -17 10 -14 6 3 10 1 10 -4 0 -18 -17 -13 -49 15
-45 37 -38 59 10 34z m61 -75 c4 -20 2 -23 -8 -14 -7 6 -10 17 -7 25 7 20 10
18 15 -11z m96 -57 c7 -7 12 -34 12 -60 0 -44 -3 -50 -27 -59 -16 -6 -36 -15
-45 -20 -16 -8 -18 -3 -18 56 0 59 2 65 20 65 11 0 23 7 26 15 7 18 16 19 32
3z"/>
<path d="M434 420 c-4 -22 -12 -40 -18 -40 -6 0 -12 -20 -14 -45 -3 -52 20
-73 44 -40 20 27 17 50 -8 63 -13 6 -17 11 -10 11 7 1 22 -3 32 -9 30 -16 49
-2 48 35 -1 27 -7 36 -34 49 l-34 16 -6 -40z m16 -84 c0 -11 -19 -15 -25 -6
-3 5 1 10 9 10 9 0 16 -2 16 -4z"/>
</g>
</svg>
